<svg width="17" height="20" viewBox="0 0 17 20" fill="none" xmlns="http://www.w3.org/2000/svg">
<path d="M2.18646 17.6864V1.85732C2.18646 1.83274 2.19131 1.82504 2.19331 1.82187C2.19339 1.82174 2.19347 1.82162 2.19354 1.8215C2.19812 1.81412 2.20986 1.80025 2.23202 1.78809C2.25418 1.77594 2.27547 1.77177 2.29069 1.77188C2.30107 1.77196 2.31756 1.77349 2.3456 1.79083L15.1456 9.70539C15.17 9.72049 15.1761 9.73147 15.1783 9.73564C15.1824 9.74315 15.1865 9.75558 15.1865 9.77188C15.1865 9.78818 15.1824 9.80061 15.1783 9.80812C15.1761 9.81229 15.17 9.82328 15.1456 9.83838L2.3456 17.7529C2.31756 17.7703 2.30107 17.7718 2.29069 17.7719C2.27547 17.772 2.25418 17.7678 2.23202 17.7557C2.20986 17.7435 2.19812 17.7296 2.19354 17.7223L2.19331 17.7219C2.19131 17.7187 2.18646 17.711 2.18646 17.6864Z" stroke="white" stroke-width="3"/>
</svg>
